# xmcd
#
# Track frame offsets: 
#        150
#        30730
#        63730
#        105840
#        133285
#        160067
#        198482
#        231392
#
# Disc length: 3424 seconds
#
# Revision: 1
# Processed by: cddbd v1.5.2PL0 Copyright (c) Steve Scherf et al.
# Submitted via: ExactAudioCopy v0.99pb3
#
DISCID=6d0d5e08
DTITLE=Zbigniew Namyslowski Jazz Band and Zakopane Highlanders Band - Ja
DTITLE=zz and Folk
DYEAR=2000
DGENRE=Jazz, Folk
TTITLE0=Skarga
TTITLE1=Krywan and Jazz
TTITLE2=Zablakana Owiecka
TTITLE3=Jazz Pod Jaworkiem
TTITLE4=Idzie Janko Z Jazzem
TTITLE5=Zboj
TTITLE6=Co Sie Stalo W Jazzie
TTITLE7=4 Po 4
EXTD=YEAR: 2000
EXTT0=
EXTT1=
EXTT2=
EXTT3=
EXTT4=
EXTT5=
EXTT6=
EXTT7=
PLAYORDER=
